<?xml version="1.0" encoding="iso-8859-1"?>
<!-- Uploaded to: SVG Repo, www.svgrepo.com, Generator: SVG Repo Mixer Tools -->
<svg fill="#000000" height="800px" width="800px" version="1.1" id="Layer_1" xmlns="http://www.w3.org/2000/svg" xmlns:xlink="http://www.w3.org/1999/xlink" 
	 viewBox="0 0 511.999 511.999" xml:space="preserve">
<g>
	<g>
		<path d="M325.747,168.835c3.782-8.994,5.878-18.866,5.878-29.218c0-35.693-24.862-65.669-58.174-73.57V0h-34.904v66.047
			c-33.311,7.902-58.174,37.878-58.174,73.57c0,10.353,2.095,20.224,5.877,29.217L90.111,427.197l67.757,84.802l45.485-122.236
			h35.195v17.452h34.904v-17.452h35.194l45.484,122.236l67.758-84.802L325.747,168.835z M255.999,98.895
			c22.454,0,40.722,18.268,40.722,40.721s-18.268,40.722-40.722,40.722s-40.722-18.268-40.722-40.722S233.545,98.895,255.999,98.895
			z M146.655,442.05l-16.939-21.202l81.889-220.063c6.292,4.579,13.31,8.208,20.852,10.685L146.655,442.05z M273.451,354.859
			v-17.452h-34.904v17.452h-22.206l39.658-106.575l39.657,106.575H273.451z M279.542,211.47c7.541-2.477,14.561-6.107,20.853-10.686
			l81.888,220.064l-16.939,21.201L279.542,211.47z"/>
	</g>
</g>
<g>
	<g>
		<circle cx="255.999" cy="139.617" r="17.452"/>
	</g>
</g>
</svg>